<?xml version="1.0" standalone="no"?>
<!DOCTYPE svg PUBLIC "-//W3C//DTD SVG 20010904//EN"
 "http://www.w3.org/TR/2001/REC-SVG-20010904/DTD/svg10.dtd">
<svg version="1.0" xmlns="http://www.w3.org/2000/svg"
 width="228.000000pt" height="228.000000pt" viewBox="0 0 228.000000 228.000000"
 preserveAspectRatio="xMidYMid meet">

<g transform="translate(0.000000,228.000000) scale(0.100000,-0.100000)"
fill="#000000" stroke="none">
<path d="M568 2273 c314 -2 830 -2 1145 0 314 1 57 2 -573 2 -630 0 -887 -1
-572 -2z"/>
<path d="M1493 1862 c-29 -23 -45 -67 -38 -106 5 -26 1 -36 -27 -62 -31 -30
-39 -32 -136 -38 -57 -4 -111 -10 -120 -13 -13 -5 -11 0 6 20 21 22 28 24 52
15 22 -7 37 -6 63 7 63 30 77 107 28 156 -40 40 -89 40 -133 0 -29 -26 -33
-35 -31 -77 1 -42 -3 -53 -35 -89 -20 -22 -47 -43 -62 -47 -44 -13 -213 -48
-217 -45 -1 2 4 13 12 24 12 17 22 20 58 16 55 -7 85 9 103 54 18 42 5 94 -29
118 -33 23 -91 19 -124 -9 -24 -21 -28 -32 -28 -78 0 -50 -4 -58 -45 -105 -31
-35 -59 -55 -90 -65 -44 -15 -47 -14 -80 8 -40 28 -69 30 -110 9 -32 -17 -54
-70 -45 -108 11 -42 51 -72 97 -72 33 0 45 6 69 33 16 18 29 41 29 51 0 17 27
37 37 27 2 -2 -14 -40 -37 -84 -35 -70 -45 -82 -76 -92 -32 -11 -38 -10 -60
11 -39 37 -98 33 -135 -9 -69 -77 -2 -180 102 -157 32 7 69 54 69 88 0 10 8
17 19 17 18 0 18 -2 1 -62 -10 -35 -21 -75 -24 -90 -9 -39 -37 -43 -81 -13
-44 29 -64 31 -105 10 -37 -19 -50 -43 -50 -90 0 -29 7 -44 32 -67 28 -26 38
-29 71 -25 47 6 72 28 87 73 14 41 32 45 24 7 -2 -16 -8 -61 -12 -102 l-7 -74
-40 -12 c-22 -6 -68 -17 -102 -24 -58 -13 -63 -12 -89 8 -29 23 -83 28 -116
10 -31 -17 -49 -70 -37 -112 19 -70 107 -91 160 -38 16 16 29 39 29 50 0 12 2
21 4 21 2 0 39 9 82 20 105 26 104 26 104 -17 0 -29 -7 -43 -35 -69 -29 -26
-35 -39 -35 -71 0 -49 21 -78 66 -93 66 -22 124 23 124 96 0 29 -7 44 -36 70
-31 30 -35 39 -32 76 l3 43 70 12 c39 6 98 15 133 18 l62 7 0 -51 c0 -45 -4
-56 -29 -77 -38 -32 -47 -73 -26 -117 27 -57 85 -72 142 -37 59 35 54 127 -7
164 -27 16 -30 22 -30 72 l0 55 142 -3 143 -3 7 -40 c4 -22 11 -72 15 -111 9
-70 8 -73 -19 -103 -63 -70 -16 -167 78 -164 100 3 123 151 29 185 l-33 11
-11 105 c-7 57 -10 106 -8 109 6 6 193 -33 270 -57 60 -19 66 -23 72 -53 3
-17 13 -63 22 -101 12 -52 13 -71 4 -74 -16 -5 -41 -56 -41 -82 0 -58 62 -108
118 -95 99 21 103 149 7 191 -27 11 -32 21 -47 86 -9 40 -15 75 -13 77 2 2 21
-3 42 -12 32 -12 39 -21 44 -52 7 -44 43 -82 84 -90 41 -9 96 29 109 74 24 82
-80 156 -151 106 -19 -13 -26 -12 -81 12 -70 31 -69 29 -79 211 l-6 113 29 -7
c43 -10 187 -65 202 -77 6 -5 12 -23 12 -39 0 -43 42 -78 94 -78 57 1 87 28
93 85 5 39 2 47 -25 75 -35 34 -83 40 -120 14 -21 -14 -27 -13 -90 12 -37 15
-94 35 -127 44 l-60 17 3 64 c1 35 8 87 16 114 12 47 15 50 44 49 55 -3 212
-56 212 -72 0 -28 32 -79 56 -91 44 -20 83 -13 115 18 52 53 33 138 -37 161
-29 10 -41 9 -77 -9 l-42 -20 -93 29 c-50 17 -101 30 -112 30 -11 0 -23 7 -26
15 -8 19 73 185 89 185 18 0 153 -36 166 -44 6 -4 11 -16 11 -27 0 -11 13 -34
29 -50 40 -39 89 -40 132 -1 55 49 36 138 -34 161 -37 13 -81 2 -101 -24 -9
-12 -24 -10 -95 9 -89 24 -95 39 -15 41 48 1 72 17 91 63 30 71 -41 146 -118
123 -51 -15 -73 -51 -66 -110 4 -37 1 -50 -14 -67 -17 -18 -26 -20 -67 -13
-26 4 -77 8 -114 8 -68 1 -81 8 -54 30 10 8 21 8 40 1 62 -23 133 40 123 108
-12 71 -99 108 -154 64z m85 -38 c28 -19 28 -55 1 -80 -19 -17 -23 -17 -47 -3
-36 20 -41 61 -10 83 28 20 28 20 56 0z m-284 -25 c32 -47 -32 -102 -74 -64
-22 20 -25 37 -10 66 15 26 64 25 84 -2z m344 -195 c17 -3 32 -7 32 -10 0 -2
-13 -28 -29 -57 -16 -28 -34 -69 -41 -91 -12 -38 -12 -38 -56 -32 -24 3 -86 9
-139 12 l-95 7 32 56 c17 31 44 73 60 93 l29 37 87 -5 c48 -3 102 -7 120 -10z
m-329 -76 c-27 -46 -50 -87 -52 -91 -1 -5 -52 -13 -112 -18 -61 -5 -118 -12
-127 -15 -10 -3 -18 -2 -18 3 0 13 86 158 102 170 15 13 126 30 205 32 l51 1
-49 -82z m731 42 c27 -27 25 -44 -7 -69 -23 -19 -29 -20 -46 -8 -32 21 -39 52
-16 76 25 26 43 27 69 1z m-1010 -4 c0 -2 -15 -29 -34 -59 -18 -31 -39 -69
-45 -85 -11 -27 -20 -30 -114 -50 -56 -12 -112 -25 -124 -28 -16 -4 -23 -2
-23 7 0 20 90 166 103 166 7 1 55 12 107 26 92 24 130 31 130 23z m-432 -58
c20 -20 15 -66 -9 -78 -49 -27 -96 20 -69 69 12 24 58 29 78 9z m629 -150 c-3
-13 -13 -60 -23 -105 l-18 -81 -101 -6 c-55 -4 -117 -9 -139 -12 l-38 -6 7 33
c4 19 17 63 29 99 26 73 25 73 161 88 130 15 128 15 122 -10z m327 6 c11 -4
15 -13 11 -23 -3 -9 -13 -58 -20 -110 -8 -51 -16 -95 -17 -96 -2 -2 -37 3 -78
10 -41 8 -100 15 -130 15 -93 2 -92 1 -65 107 13 51 27 98 31 104 7 13 233 6
268 -7z m-646 -36 c-3 -7 -15 -52 -28 -99 l-22 -85 -122 -22 c-66 -12 -124
-22 -128 -22 -3 0 -4 10 -1 23 7 30 45 151 49 156 4 5 223 59 243 60 7 1 11
-5 9 -11z m1086 -21 c22 -16 18 -65 -5 -80 -50 -31 -105 38 -59 75 26 21 40
23 64 5z m-1502 -24 c36 -32 17 -83 -32 -83 -48 0 -67 45 -33 82 20 22 41 23
65 1z m684 -185 c-3 -13 -6 -68 -6 -123 l0 -100 -145 0 -145 0 1 55 c1 69 13
157 23 167 9 9 109 19 210 21 66 2 68 1 62 -20z m279 -2 l70 -11 6 -95 c4 -52
10 -118 13 -146 l8 -51 -79 22 c-43 13 -114 29 -158 36 -44 7 -84 16 -89 20
-10 9 -10 225 0 241 7 11 114 3 229 -16z m-609 -38 c-3 -18 -8 -67 -12 -110
l-7 -76 -86 -12 c-47 -7 -106 -16 -131 -20 -25 -5 -45 -8 -46 -7 -4 7 18 176
25 193 8 18 28 25 113 42 149 29 151 29 144 -10z m1117 -80 c16 -60 -64 -91
-94 -37 -14 26 -4 54 24 66 28 13 63 -2 70 -29z m-1712 -208 c25 -14 25 -61 0
-84 -24 -22 -68 -6 -77 28 -7 30 1 44 30 56 28 11 25 11 47 0z m324 -154 c29
-43 -18 -91 -64 -67 -29 16 -36 49 -15 72 24 26 60 24 79 -5z m699 -82 c9 -8
16 -22 16 -30 0 -19 -36 -54 -55 -54 -16 0 -55 34 -55 48 0 4 7 18 16 30 18
26 56 29 78 6z m410 -50 c21 -20 20 -43 -1 -66 -32 -36 -83 -17 -83 32 0 14 5
31 12 38 17 17 54 15 72 -4z"/>
</g>
</svg>
